<svg width="37" height="36" viewBox="0 0 37 36" fill="none" xmlns="http://www.w3.org/2000/svg">
<g clip-path="url(#clip0)" filter="url(#filter0_d)">
<path d="M30.5287 14.1953C30.2553 14.487 29.9727 14.7969 29.6811 15.125C29.3894 15.4531 29.0203 15.8906 28.5737 16.4375C28.127 16.9844 27.767 17.5312 27.4936 18.0781C27.2201 18.625 27.0834 19.0989 27.0834 19.5C27.0834 19.9922 26.2312 20.4069 24.5268 20.7441C22.8223 21.0814 20.7579 21.25 18.3334 21.25C15.9089 21.25 13.8445 21.0814 12.14 20.7441C10.4356 20.4069 9.58341 19.9922 9.58341 19.5C9.58341 18.9713 9.33731 18.3105 8.84513 17.5176C8.35294 16.7246 7.89265 16.0866 7.46427 15.6035C7.03588 15.1204 6.61205 14.6693 6.19278 14.25C4.9532 13.0469 4.3334 11.5885 4.3334 9.875C4.3334 8.17968 4.93041 6.73502 6.12442 5.54101C7.31843 4.347 8.76309 3.75 10.4584 3.75C10.8777 3.75 11.3152 3.79557 11.7709 3.88672C11.4792 4.63411 11.3334 5.46354 11.3334 6.375C11.3334 8.32552 11.935 9.94791 13.1381 11.2422C13.1016 10.2578 13.0834 9.21875 13.0834 8.125C13.0834 6.42969 13.5938 4.98502 14.6147 3.79101C15.6355 2.597 16.8751 2 18.3334 2C19.7917 2 21.0313 2.597 22.0522 3.79101C23.073 4.98502 23.5834 6.42969 23.5834 8.125C23.5834 9.23698 23.5652 10.276 23.5287 11.2422C24.7319 9.94791 25.3334 8.32552 25.3334 6.375C25.3334 5.46354 25.1876 4.63411 24.8959 3.88672C25.3516 3.79557 25.7891 3.75 26.2084 3.75C27.9037 3.75 29.3484 4.347 30.5424 5.54101C31.7364 6.73502 32.3334 8.17968 32.3334 9.875C32.3334 11.5703 31.7319 13.0104 30.5287 14.1953ZM18.3197 23C20.7351 23 22.7996 22.8268 24.5131 22.4805C26.2266 22.1341 27.0834 21.7239 27.0834 21.25V28.25C27.0834 28.7239 26.2266 29.1341 24.5131 29.4805C22.7996 29.8268 20.7351 30 18.3197 30C15.9044 30 13.8445 29.8268 12.14 29.4805C10.4356 29.1341 9.58341 28.7239 9.58341 28.25V21.25C9.58341 21.7422 10.4356 22.1569 12.14 22.4941C13.8445 22.8314 15.9044 23 18.3197 23Z" fill="#FC633A"/>
</g>
<defs>
<filter id="filter0_d" x="0.333405" y="0" width="36" height="36" filterUnits="userSpaceOnUse" color-interpolation-filters="sRGB">
<feFlood flood-opacity="0" result="BackgroundImageFix"/>
<feColorMatrix in="SourceAlpha" type="matrix" values="0 0 0 0 0 0 0 0 0 0 0 0 0 0 0 0 0 0 127 0"/>
<feOffset dy="2"/>
<feGaussianBlur stdDeviation="2"/>
<feColorMatrix type="matrix" values="0 0 0 0 0 0 0 0 0 0 0 0 0 0 0 0 0 0 0.25 0"/>
<feBlend mode="normal" in2="BackgroundImageFix" result="effect1_dropShadow"/>
<feBlend mode="normal" in="SourceGraphic" in2="effect1_dropShadow" result="shape"/>
</filter>
<clipPath id="clip0">
<rect width="28" height="28" fill="white" transform="translate(4.3334 2)"/>
</clipPath>
</defs>
</svg>
